<?xml version="1.0" standalone="no"?>
<!DOCTYPE svg PUBLIC "-//W3C//DTD SVG 20010904//EN"
 "http://www.w3.org/TR/2001/REC-SVG-20010904/DTD/svg10.dtd">
<svg version="1.0" xmlns="http://www.w3.org/2000/svg"
 width="100.000000pt" height="100.000000pt" viewBox="0 0 100.000000 100.000000"
 preserveAspectRatio="xMidYMid meet">
<metadata>
Created by potrace 1.10, written by Peter Selinger 2001-2011
</metadata>
<g transform="translate(0.000000,100.000000) scale(0.100000,-0.100000)"
fill="#000000" stroke="none">
<path d="M474 832 c7 -12 1 -16 -47 -27 -22 -4 -27 -3 -22 7 4 7 1 6 -7 -3
-16 -19 -48 -32 -48 -19 0 6 8 10 17 10 9 0 14 3 10 6 -10 10 -47 -7 -47 -22
0 -8 -14 -17 -32 -21 -27 -5 -29 -7 -13 -14 18 -6 17 -7 -7 -14 -14 -4 -38
-20 -53 -37 -17 -19 -32 -27 -43 -24 -15 5 -15 4 1 -8 22 -17 22 -30 0 -21
-15 5 -16 4 -5 -6 14 -15 16 -33 3 -25 -5 4 -8 -2 -6 -11 1 -10 -2 -24 -8 -30
-5 -7 -6 -13 -3 -13 4 0 0 -10 -8 -22 -22 -31 -20 -65 4 -78 11 -6 18 -15 15
-20 -3 -6 1 -7 9 -4 20 8 20 -3 1 -22 -8 -9 -15 -21 -15 -27 0 -7 5 -6 11 3 9
12 10 11 6 -6 -3 -15 0 -21 12 -20 11 1 17 -11 22 -43 7 -52 30 -72 70 -64 18
3 35 0 45 -8 15 -12 16 -11 10 8 -20 62 -24 129 -9 156 19 37 11 45 -13 14
-29 -37 -114 -62 -114 -33 0 45 98 90 139 64 21 -13 41 -76 41 -127 0 -16 -10
-46 -21 -66 -27 -46 -19 -55 14 -16 l25 30 9 -37 c11 -45 65 -87 93 -72 9 5
20 7 23 4 3 -3 11 -3 17 1 9 6 9 9 0 15 -9 6 -6 10 8 14 14 5 24 19 28 42 5
27 9 32 18 21 6 -7 19 -19 29 -27 17 -12 21 -11 37 9 12 17 22 21 31 15 30
-18 79 4 79 36 0 10 6 21 13 23 9 4 9 7 0 14 -10 7 -9 15 2 37 8 16 15 34 15
41 0 8 11 22 24 32 15 12 26 33 29 56 4 33 -4 50 -16 30 -2 -5 -2 -2 -1 5 2 7
-5 29 -16 50 -11 20 -20 44 -20 53 0 9 -15 31 -32 50 -18 19 -31 40 -30 48 3
13 1 13 -12 2 -15 -13 -21 -8 -17 13 1 5 -4 6 -12 3 -7 -3 -19 4 -25 14 -7 10
-21 19 -33 19 -11 0 -17 5 -14 10 3 6 -1 10 -9 10 -9 0 -16 -6 -17 -12 0 -7
-4 -3 -9 8 -4 12 -18 24 -29 27 -12 3 -19 1 -15 -4 3 -5 12 -9 20 -9 8 0 14
-4 14 -9 0 -6 -9 -9 -20 -8 -11 1 -20 4 -20 8 0 4 -7 10 -16 13 -8 3 -12 2 -9
-4 9 -15 -8 -12 -34 7 -14 9 -21 11 -17 5z m97 -55 c4 -5 12 -6 18 -3 6 4 11
1 11 -8 0 -26 -49 -50 -100 -50 -28 0 -58 7 -74 17 -29 19 -34 37 -10 37 8 0
13 4 9 9 -3 5 9 12 27 14 44 6 111 -3 119 -16z m-186 -16 c-3 -6 -14 -11 -23
-11 -9 -1 -3 -7 14 -14 20 -9 33 -23 36 -40 7 -34 2 -36 -35 -24 -42 14 -49
21 -53 53 -2 22 4 29 29 40 34 14 43 13 32 -4z m275 -1 c8 -5 15 -15 15 -22 0
-7 12 -14 28 -16 36 -4 39 -42 2 -42 -18 0 -23 4 -19 15 8 19 -5 19 -20 1 -6
-8 -27 -18 -47 -21 -35 -7 -36 -6 -31 20 3 18 15 32 36 41 17 7 23 13 14 14
-9 0 -20 5 -23 10 -8 13 25 13 45 0z m-342 -63 c3 -12 -3 -17 -22 -17 -25 0
-35 18 -19 34 12 12 38 2 41 -17z m246 -19 c-6 -20 -4 -21 49 -15 54 5 58 4
111 -36 31 -23 56 -46 56 -51 0 -18 -75 4 -131 39 -31 19 -65 35 -76 34 -15 0
-15 -1 3 -9 32 -13 43 -34 13 -25 -22 7 -23 7 -9 -10 14 -17 13 -18 -6 -13
-16 4 -25 -1 -34 -17 -12 -23 -64 -33 -75 -14 -4 5 -1 9 6 9 8 0 8 4 -1 15 -7
8 -16 13 -20 10 -4 -3 -20 1 -34 9 l-26 13 25 23 c14 13 27 31 31 42 6 19 39
24 64 8 9 -6 17 -5 22 3 6 9 8 9 8 -1 0 -7 5 -10 10 -7 6 4 7 11 4 17 -4 7 -2
8 5 4 7 -5 9 -16 5 -28z m-310 -20 l-19 -22 25 17 c36 25 47 21 21 -7 -17 -18
-19 -26 -10 -31 7 -5 10 -4 5 3 -11 18 58 53 93 46 17 -4 31 -9 30 -13 -1 -14
-58 -49 -107 -66 -54 -17 -76 -15 -54 7 23 23 12 29 -17 8 -23 -15 -31 -17
-37 -8 -4 7 -4 10 1 6 4 -4 16 3 25 15 13 16 15 24 7 29 -14 8 19 37 42 38 11
0 9 -6 -5 -22z m522 6 c14 -11 16 -17 6 -21 -10 -4 -8 -11 9 -29 31 -33 10
-30 -39 5 -58 42 -69 66 -19 39 20 -10 21 -10 8 5 -11 15 -11 17 1 17 8 0 23
-7 34 -16z m-320 -90 c-4 -9 1 -29 11 -43 24 -37 20 -119 -8 -176 -12 -25 -26
-45 -30 -45 -13 0 -39 99 -39 145 0 28 7 52 21 69 32 41 15 43 -20 3 -24 -27
-43 -37 -87 -46 -32 -6 -61 -11 -66 -11 -20 0 26 62 64 86 35 22 50 26 95 22
29 -3 53 -1 53 4 0 4 3 8 6 8 3 0 3 -7 0 -16z m254 -24 c31 -22 68 -80 51 -80
-51 0 -120 26 -153 58 -43 41 -49 36 -14 -11 18 -25 23 -41 19 -72 -4 -40 -32
-145 -38 -145 -12 0 -46 80 -53 126 -8 47 -6 61 14 104 19 42 27 49 56 52 44
4 81 -6 118 -32z m-473 2 c9 -6 6 -18 -10 -47 -28 -50 -53 -53 -50 -7 2 50 29
74 60 54z m573 -7 c6 -8 13 -29 13 -47 3 -46 -22 -43 -50 7 -20 37 -21 41 -5
47 25 10 28 9 42 -7z m-42 -108 c40 -37 23 -61 -32 -46 -33 10 -76 46 -76 65
0 19 81 5 108 -19z m-106 -14 c8 -16 15 -44 13 -63 -3 -50 -16 -109 -25 -115
-11 -7 -40 58 -40 89 0 31 22 116 30 116 3 0 13 -12 22 -27z m-352 -70 c0 -45
-8 -58 -36 -67 -43 -13 -40 68 4 93 28 17 32 13 32 -26z m424 16 c33 -26 38
-89 7 -89 -31 0 -51 28 -51 71 0 45 7 47 44 18z m-204 -51 c37 -41 38 -70 3
-103 -33 -30 -32 -29 -60 -6 -37 31 -39 66 -7 105 16 19 30 35 32 35 1 1 16
-14 32 -31z"/>
<path d="M489 771 c-14 -5 -14 -8 2 -25 16 -16 19 -17 19 -4 0 9 5 18 12 20 8
3 7 6 -3 10 -7 3 -21 2 -30 -1z"/>
</g>
</svg>
